<?xml version="1.0" encoding="utf-8"?>
<!-- Generator: Adobe Illustrator 21.1.0, SVG Export Plug-In . SVG Version: 6.00 Build 0)  -->
<svg version="1.1" id="Layer_1" xmlns="http://www.w3.org/2000/svg" xmlns:xlink="http://www.w3.org/1999/xlink" x="0px" y="0px"
	 viewBox="0 0 49 64.3" style="enable-background:new 0 0 49 64.3;" xml:space="preserve">
<style type="text/css">
	.st0{fill:#8BC249;}
	.st1{fill:#FFFFFF;}
</style>
<g>
	<path class="st0" d="M49,24.5C48.6,11,38,0,24.5,0C11,0,0.4,11,0,24.5c-0.6,19.7,15.1,25.7,22,38.3c1.1,2,3.9,2,5,0
		C33.9,50.1,49.6,44.2,49,24.5z"/>
	<circle class="st1" cx="24.5" cy="24.7" r="18.4"/>
	<path class="st0" d="M23.4,17L23.4,17L23.4,17c0-0.3,0.7-1.3,0.9-1.3c0.2,0,0.9,1.1,0.9,1.3v0l0,0h0c0,0.4-0.4,0.7-0.9,0.7
		C23.8,17.7,23.4,17.4,23.4,17L23.4,17z M30.4,24.1L30.4,24.1L30.4,24.1C30.5,24.1,30.5,24.1,30.4,24.1c0.3,0,1.3-0.7,1.3-0.9
		c0-0.2-1.1-0.9-1.3-0.9c0,0,0,0,0,0l0,0v0c-0.4,0-0.7,0.4-0.7,0.9C29.7,23.7,30.1,24.1,30.4,24.1z M18,22.3L18,22.3L18,22.3
		C18,22.3,18,22.3,18,22.3c-0.3,0-1.3,0.7-1.3,0.9c0,0.2,1.1,0.9,1.3,0.9c0,0,0,0,0,0l0,0v0c0.4,0,0.7-0.4,0.7-0.9
		C18.7,22.7,18.4,22.4,18,22.3z M28.1,19.3c0.3,0.3,0.8,0.4,1.1,0.1l0,0l0,0c0,0,0,0,0,0c0.2-0.2,0.5-1.4,0.3-1.6
		c-0.2-0.2-1.4,0.1-1.6,0.3c0,0,0,0,0,0l0,0l0,0C27.7,18.5,27.8,19,28.1,19.3z M20.3,27.1c-0.3-0.3-0.8-0.4-1.1-0.1l0,0l0,0
		c0,0,0,0,0,0c-0.2,0.2-0.5,1.4-0.3,1.6c0.2,0.2,1.4-0.1,1.6-0.3c0,0,0,0,0,0l0,0l0,0C20.7,27.9,20.7,27.4,20.3,27.1z M32.9,29.1
		c0-0.2,0.1-0.4,0.1-0.6c0-2-1.6-3.5-3.5-3.5c-1.3,0-2.4,0.7-3.1,1.8c-0.4-0.2-0.8-0.4-1.2-0.4c-1.2,0-2.2,1-2.2,2.2c0,0,0,0,0,0
		c-1.3,0.1-2.3,1.2-2.3,2.5c0,1.4,1.1,2.6,2.6,2.6h8.3c1.4,0,2.6-1.1,2.6-2.6C33.9,30.3,33.5,29.6,32.9,29.1z M20.7,20.8H21h0
		c0.1,0,0.1,0,0.2,0c1-0.1,1.9-1,1.9-2c0-1.1-0.9-2.1-2.1-2.1h-0.1c-0.4-0.6-1-1-1.8-1c-1,0-1.8,0.7-2,1.7h-0.3
		c-0.9,0-1.7,0.8-1.7,1.7c0,0.9,0.8,1.7,1.7,1.7H20.7z M21,22h-0.3H20c-0.1,0.4-0.2,0.8-0.2,1.2c0,1.7,0.9,3.1,2.3,3.9
		c0.6-1.1,1.7-1.9,3-1.9c0.3,0,0.6,0,0.9,0.1c0.7-0.8,1.6-1.3,2.7-1.4c0-0.2,0.1-0.4,0.1-0.7c0-2.5-2-4.4-4.4-4.5c0,0,0,0,0,0
		c0,1.7-1.2,3-2.9,3.2C21.3,22,21.2,22,21,22z"/>
</g>
</svg>
